<?xml version="1.0" encoding="utf-8"?>
<!-- Generator: Adobe Illustrator 26.0.0, SVG Export Plug-In . SVG Version: 6.00 Build 0)  -->
<svg version="1.1" id="Layer_1" xmlns="http://www.w3.org/2000/svg" xmlns:xlink="http://www.w3.org/1999/xlink" x="0px" y="0px"
	 viewBox="0 0 288 288" style="enable-background:new 0 0 288 288;" xml:space="preserve">
<style type="text/css">
	.st0{fill:#04A54F;}
	.st1{fill:#107A3E;}
	.st2{fill:#1385C8;}
	.st3{fill:#1D4A23;}
</style>
<g>
	<path class="st0" d="M169.7,145.4c0,14.6-11.8,26.4-26.4,26.4c-14.6,0-26.4-11.8-26.4-26.4c0-14.6,11.8-26.4,26.4-26.4
		C157.8,119,169.7,130.8,169.7,145.4z"/>
	<polygon class="st1" points="144.4,78.8 208.9,144 286.3,144 286.3,78.8 	"/>
	<polygon class="st1" points="210,143.6 144.8,208.1 144.8,285.5 210,285.5 	"/>
	<polygon class="st1" points="143.6,210 79.1,144.8 1.7,144.8 1.7,210 	"/>
	<polygon class="st1" points="78.8,144.4 144,79.9 144,2.5 78.8,2.5 	"/>
	<path class="st2" d="M210.5,169.2"/>
	<path class="st2" d="M77.2,119.5"/>
	<path class="st2" d="M60.7,184.5"/>
	<path class="st3" d="M212.9,79.4c0,0-0.8,45.5,15,64.9c-12.3,0-19.1,0-19.1,0V79.4H212.9z"/>
	<path class="st3" d="M208.8,213.4c0,0-45.5-0.8-64.9,15c0-12.3,0-19.1,0-19.1h64.9V213.4z"/>
	<path class="st3" d="M74.8,209.3c0,0,0.8-45.5-15-64.9c12.3,0,19.1,0,19.1,0v64.9H74.8z"/>
	<path class="st3" d="M78.9,75.3c0,0,45.5,0.8,64.9-15c0,12.3,0,19.1,0,19.1H78.9V75.3z"/>
	<polygon class="st0" points="209.2,144.4 144,79.9 144,2.5 209.2,2.5 	"/>
	<polygon class="st0" points="143.6,79.5 79.1,144.8 1.7,144.8 1.7,79.5 	"/>
	<polygon class="st0" points="79.5,143.6 144.8,208.1 144.8,285.5 79.5,285.5 	"/>
	<polygon class="st0" points="144.4,209.2 208.9,144 286.3,144 286.3,209.2 	"/>
	<polygon class="st0" points="79.9,79.9 79.9,145.1 145.1,79.9 	"/>
	<polygon class="st0" points="210.3,79.9 210.3,145.1 145.1,79.9 	"/>
	<polygon class="st0" points="210.3,145.1 210.3,210.3 145.1,210.3 	"/>
</g>
</svg>
